<mxfile host="app.diagrams.net" modified="2022-08-19T04:35:28.624Z" agent="5.0 (Windows NT 10.0; Win64; x64) AppleWebKit/537.36 (KHTML, like Gecko) Chrome/104.0.5112.81 Safari/537.36 Edg/104.0.1293.54" etag="YO_p3q8ystOgeuGxuhFC" version="20.2.5" type="github">
  <diagram id="Ey_v0dqt1bbpthtS6JUJ" name="Page-1">
    <mxGraphModel dx="1902" dy="1162" grid="1" gridSize="10" guides="1" tooltips="1" connect="1" arrows="1" fold="1" page="1" pageScale="1" pageWidth="850" pageHeight="1100" math="0" shadow="0">
      <root>
        <mxCell id="0" />
        <mxCell id="1" parent="0" />
        <mxCell id="pONfItEFthJgs71ATTOa-4" value="" style="rounded=0;whiteSpace=wrap;html=1;fillColor=none;dashed=1;" vertex="1" parent="1">
          <mxGeometry x="60" y="210" width="730" height="500" as="geometry" />
        </mxCell>
        <mxCell id="pONfItEFthJgs71ATTOa-1" value="" style="aspect=fixed;html=1;points=[];align=center;image;fontSize=12;image=img/lib/azure2/networking/Virtual_Networks.svg;" vertex="1" parent="1">
          <mxGeometry x="80" y="195" width="50.25" height="30" as="geometry" />
        </mxCell>
        <mxCell id="pONfItEFthJgs71ATTOa-5" value="Application&amp;nbsp;&lt;br&gt;Gateway" style="sketch=0;aspect=fixed;html=1;points=[];align=center;image;fontSize=12;image=img/lib/mscae/Application_Gateway.svg;dashed=1;fillColor=none;" vertex="1" parent="1">
          <mxGeometry x="130.25" y="390" width="70" height="70" as="geometry" />
        </mxCell>
        <mxCell id="pONfItEFthJgs71ATTOa-8" value="" style="verticalLabelPosition=bottom;verticalAlign=top;html=1;shape=mxgraph.basic.rect;fillColor2=none;strokeWidth=1;size=20;indent=5;opacity=25;fillColor=#F5F5F5;" vertex="1" parent="1">
          <mxGeometry x="310" y="789.9964705882354" width="210" height="203.82352941176472" as="geometry" />
        </mxCell>
        <mxCell id="pONfItEFthJgs71ATTOa-9" value="" style="sketch=0;aspect=fixed;html=1;points=[];align=center;image;fontSize=12;image=img/lib/mscae/Kubernetes_Services.svg;strokeColor=default;strokeWidth=1;fillColor=#FAD14B;" vertex="1" parent="1">
          <mxGeometry x="460" y="812.53" width="50" height="37" as="geometry" />
        </mxCell>
        <mxCell id="pONfItEFthJgs71ATTOa-10" value="GraphQL API Hosted In A Pod" style="shape=image;verticalLabelPosition=bottom;labelBackgroundColor=default;verticalAlign=top;aspect=fixed;imageAspect=0;image=data:image/png,iVBORw0KGgoAAAANSUhEUgAAAF0AAAB1CAYAAAAsju2YAAAAAXNSR0IArs4c6QAAAARnQU1BAACxjwv8YQUAAAAJcEhZcwAAFiUAABYlAUlSJPAAACB+SURBVHhe7X3XkyRXXvWpyszyXe3NTPf40Uij0c5Ku9JKrIE12EBEQEAQ8AAvPEAE7zzzF/BGBE+YIL6XD74v8EQAywqxRrvalWZX0vSYHtPd095Ud3mThnNuVbW6e9rUzFRXrZY6oVRmV2Vec+7P3d+9WRP6s/fXA/TQUYQb5x46iB7pXUCP9C6gR3oX0CO9C+iR3gX0SO8CeqR3AR0l3bJtRGKxQw8nGm3ceTIIhUI7dYUtq/Fp59HRGanvBXCrNbi1YuOTjxEO2yQ9Acs5OTnwfQ+VfA52NAXbsRAKhxrfdBYdI71aLiGz9Air929hY34GxXwB8WQCtWqVnQ8jPTyG0QtXMXHpBTgRkh+xORDtISXM8gP2Mrexgelv/ivCdhRTV69jYHwKdiRKDeyslbXe/IM/+uPG9YmiUshjbfYu7v/gm7j9na+ba9+rYXNxDutzM8itLqBSzCESTxiJj8bjJMeGYesZUTclIWytrODdf/hLM+iJ9AASA6OIsC476rCazqWgOu5I3VoNlVIZpy5ewXOf+zKufukXcebFzxhilm69T0n8N6zP34HnVmC12e76notiZhXFzRXk1pdR5SCHrXDb6zkOXYleIskUrv/Cb+DVX/ltfOV3/hBf/O3fx8XXfga1SgUfvPUvuPPdt2gKVht3y8QcdhyGvffJgQq8MucmLNuiNoWMieskukL6fiTSg7Tl1zB57dUdgqQRUvlILHrocVC0I43Zf58kOUy77cRprnbBrXnUqODEo6b96DrpnuvSmcUwMDGJwdNnd0ljQMmvIZ/J0u7P48EPv4cHN76755i/eQPVEgfHD0w4KnJr5XL9/l333efxkM+v3Jt+zEf4ng+PA9xJdJ103/cND+FwBE4sXrcIhFfzaWLWSewP8MOv/wO+/Td/gW/97Z/vHN//5/+Le+99G2tzdymxVROhsCgUczkskdwf/dv/w3f+/1+Ze9/9x/+Dj976Jzz84F3ks1k4yX6GplFqRYgDFTJt6CS6TrrIqhQLyCw/onNbQYxRi+Ln4vYmVu7fpKR+Cw/f+xbym6twK2UjlYqEtpbnsTj9PmY/eAeF7Q2UGH/nN9ew+uA2Hr7/bTrj+6a8arFo7s/yWhpQKhTqkYoZXOoV6+/0RKk7pLPTMgPF7BbKhSzj94eY+6iu/iOTZxm/p0nkOpZmPsAqP5OZ/9RX3sTrv/a7+MJv/h5eowM+8+LLKG5tYI7Sm1mYw+bSPFZn72D+w+/h4Y3vID1xFi/+9C/hDT7zyi/+Bs5c+yzi6X7OASKo5DLwqpW6aXH9/x3Ri6R1be4e7n7vbYaI/4E777yFhZvvo1bM4twrX8TwuUs0NTFUOSBerYLhs1dw+XM/jfPXX8elV34Kl1/9Es6+9BoSQ2MorC9hY+E+Y+97PD/E1uoSSgxJh06dxfNv/DyuvP4VvPjFn8dLX/5lXPj06xgYHt5DckDT8r8ieqkU87jx73+Hb/z1n+I//vxPcPO//oUOMY/BM5dx5Y2vIpZI0VSsw/MCjFx4ARdeeQPpkXET4gnRRAL9Y6cMselT58y9G49mUaLmaNJz5sVXMDx1Hn3DA7QgAV0y0Dc0jvHz1/h301EzZHTCnBjtjWg6ga6QbtkORinN17/2Jq5+4efw/Oe/hus/92u4/rO/isFTUyTDYdSyTjudNfcqpIvQyTrRWMPphcxnYcumTbaNmdDER1IrG207EWOnd6cRLMdCNElHvQs+w0WPYWOn0RXSFaVcpJm4/tU38dqbv0Wb++t4/qe+iqkXriOe6kOKZiPRN2DIc2l7C5kNkuqZQ3G8Eme1itso7XC4DEc1EG7NRW5zk75jdk/IGGLvFcF0Gl0hXTmV4clzGJm6gNNXrmHi4gs0HxNGmoV4qh/946eNJG+tLNBWz5pDSTNDohmIdWRXH6Ga30KEEU+8j06SmlBjhLO1skjHOkdnnOHfVd6bwfK9W5j98PsoM5qxY0m2wTF1dQMdJd2n5Cmm3g2Fbx4lWDPQ5qFB0SBYjDS215axTqd7552vM4S8hZWHd7HCsHD14S2sz95F4NUwwAEaOXuZNnzcaIOc6twH38fi7Q9I9m0s3v0Ac4xqFm79CLntbYQ5GdOAalIlrek0OpZllASukrBHt37I2LlgnOPImQtGx0XUbjjROE1LlJJdRDGzhuzyLFZmbmJxZhoPf/Qu5j/6AR3nfRPjn3v5Czj7qdcwNKmIJ4FyPoP8yjwjnxyl/RHre9/E7tnVRRQZ65dZN807Rs49h9ELzyE1MCQX0VF0lPTi9hZKnMgEtTJOv/CyIV1qvj+tKidpRRza7zC1wDWzTGUENzi5ySwv0KRsI8mYe+qlz5kylIPvGxpi1NPHgeBgVWmG+OzSzC2TOlbAMshIZ3jqHGP0TaTHz+DCZz7P6If1Ww6ddWetbMcWMZRj0axS9tatVCiZlxn2jZowcD/pikDk8CTpuY01zj4XaMfLxjTV8yyWccaJ9BDSYxPGByjKCQKfkl5gHYzVc+u8zhktkq2P0TE70SRnqY/MwsXAxHmkBkf4GQe3wytIHV2uC/yPIxDLjjJ+Pj7nISLlCw6CynncIZJA9sjzKubcRCisENI2efo6wvXPuhC9dJR02eDdeQ5J/34p3w9J/WHTdOOE9w3IUffvhpy3IqFuoKOk91BHZz1IDwY90ruAHuldQI/0LqBHehfQI70L6JHeBfRI7wJ6pHcBPdK7gB7pXUCP9C6gI6Q3k6c6706kNv82n+3aGvG02FNe47znYB3N77qJjpAeZ0+1u0SZ7+iuXuvzJI+YbcNxnn2hWCWoPJUrNMs3n1kWIpGIue62erc9tRvhoQK1D9bnRcnzsVL0kan40AJN2gkjaoeQrfoo1nxzT8QOYyBmYSwWQsIKgSdDTI3fHbafVhlzh/eVG60ve4GpI8tDa83bLFtl8JY6JOVsQJoPJiNhDMfCHIjQY+V0Am0nXZ2oBQGK7HmuGmCp6OEOSV/ZrML2gakBBxPJMH70qIStAuBS9FN9Nib7LDzHzy/1O0ZiRZZW7cKHmB2tfbgcseYSxkLBxVzBZ32sK+eiqtFswjU3w+bgDo9FMUKWn2d94/EwYhwIygCsDi7ZtZX0PEUzSwlTp9dyNRTY2Y2yj3k/jK1MFQl27NJohMRa+Ob0FlZzFmqU/BgJGE6FcTYKTCZtRKIcOkrjUDSMU5TINEnSsyJYjZUkb1JTHuY9VCjZ1YqLlYKHVQ7yehVYZ517wHtDFY8DGULfYARDMQ4+CR9NWkjGLcRZ1yCZH9U1pf+k+W8L6XUiAjzIebiddXF7pYLl9QpClLbACqPoWPA5IP0kUKQ/R4K/P72BuZyDqhdGiBzbTkCpq5cXT1PWSb6k/xqPC7QJoyTGoaRK8KVFdzmwb6/UsJmpoZStQlvrqiTVZV1OwkaI98jkmM6RdNo5BJU6m8lYYLTI4eAmWVea5Y9zYF8Ydij9Fvp5HTvBtdP2bMFgzyTV01s1vJejZNNAatdbLQihFrcRqIckLEoihyTV/HNxs4ztisXBYuf4vO+GUK3Vj2LN40ETxXIKlN4iB09SPEK771AMpVGzNCPTHOQVDnKVdVdZjh+pkzgx6KCv0SZphfmfTIxXJ7LWqKvE8rMlH9t6nuWv8Fxg2QlKfT+1rCEDbcczl6uoJNEQigdU7W3TS6oQCbInYrAHInBox3WkEhbS0l0OQtCfkiE19+6HJDLYplNcreH2bBn/OVPEP224WKaJyNM2b1NyCyTLpr8QrNEo7NNx9I3HcJHS+llK7uCAXocxXx8Nkl1dd/FooYrp+0W8N1/Gg20XLvvRjILajbYMpnxWlo2XAxXlIUqJRXtpjCP/k02mEBrTYPxiQHXPFfngEavxLEi3eXzA48MpqrukUI9L2gOW57EOm443pM1C/MxsCOUNcoyH+N+DwbrUFG2x89gZ9cf0o/5t29EW0tVB+b5mIxWaheSQeN1HBlxtlVAvmuB1yKWUKgQ5DvUwBSUyYYtsfiT/EahS1hEyDNdv/aSgLaQLh9GnvSkKJvaQTsKCGCN6iWYr4P1ta+iPAdrSFwkjI8XHiJfxYFRn1HUPJJkOvUErEiqtYeSSpFRXOHKMX2g+PmGivQ9tIV12NEk1P2wi8xg4CqHjbHoTGrAWbvskoS2k+xR1RRRyQu2G4u1Q+eC9jJ9UtEnSOdOjCWh5PiGHmE7SER4f0wUsNJCX/glCe2w6jwonFvutgApX9PLYYJgHGNS3ohnUIouzzQHy3sfQ0+fDioZOAgEnTB7DT18R0QmiLaQLMufNpgYaAE29dU2CHqOIn4UqNZ4PN9ZKDah1DgseoBadidGZmgFULXSu8gsVH355r6dWlFRi/SVOnloaG9YRVgoiwvIinE9wjuH8uJOufok6TZ2HKImcZ8IiEX6Os7qChxzDF4/kBLL5DHFcEqLRCUz0ckjnWE4oGUb/oIWLow6uT0RxmRMhpX1laXRoJhxiWR7r8Askn/XUipytsq55ntdV/5449QCwekN0v4XJEQsXTkfw3KBt8jwKDva+lNM+PHHCS6Mkkpt0GdL5vwJNwFzOw4drNcysV7GxVSPZ/D7GuQ1Z0mRGiaTLnJ5fHnTw3YUyFhZrqDZmmeqkNuibn/CiLXE403yJBLzB+5UKFpJWnQzl4j9iXW+vVbG6wXo2XHj0tT7n7UGa0/94GG52l/OV1jUTXvxPP8LAFsHiVMHutzEwGsUbfWGc67NNZjOlGbQqakBXOtTXJyLrEDwR6eq68iwlPsF2GfVtvtegQnKU5C12cJFSt0DSM9tVrLN7S+UAtZKLfkqQsowX2dFvTGeRydGGWlRth/aa5mNgIILLQzYVgBrDey+QwLOU8KZCNE6mrk3OuG6yji1K9tZGGRtuCCu0WFscxB2GmmiSTpsdjgaYGI5gzPYxmCTh6QiGOUgXWZfSFUlWpkd3vwOoPqvvVX6x993Ap8MTka4by5ySRylxIlhZPH2mBvVRTSXxmrhUeFFgR3V8tOXi3byPLKU/zcaL9CuU4NvzBUwv+6gMOBijGblCcq9RA86mLJNo8llOPSlYz4XkRCYhM7bzg3YB7+HIu2zTQ9Zxh4M9x4FY26igIPPVBO+xeU+a5/HJOC6lbDyftszqkaRe0ReHxDj8Mvukv5UratYrDdV3SkMo7/OsOJZ0reLoBqVXtSCxWPSwQRsq0jULFeM+VVLqaJFkmzc7bORAwsIUO6XlOlocVGjnVVZaDpHfP9igCeL8KEKyJ/p4L6VtiNItZynzsUrJfFQJsFpwUdumGWL9V0/FEeGz69katukoU0kHiQSllGWICwlBns/miy62/XqCTGZdPoDFm2XAUQ7yKNuruuReNtiuFfZrVgm7zQpCNRenqHH9LHt1q4oFDmRyJGpC4jMxi5pHX6Mlxwb3koUntf1Hkq6Oas1Rue08GV5kZ29RotZIuiFcIAk0tvVrsctZZiRuYZxEfjodxgQ7oPZFKCp1J6g8SsiYB1WsRx1+psZLyjTVX82ys7RhD2mWtArlZmjEKPZfvpbiswFmlitY2PYQpQ2O8/iM6qH0JhV5kH0KqqmnyPLUMi1I6JCCSHhkFqusJ8PBmWP5MwXWqfz/ShkJuLhKbRjqj+DWUhlzay6cIQ4u+3SJhL9ApzuactDH8oQo+x9jmNn4syUcSrqUc55SfYNmYZlOy6VEbOddPGDjIhxph0eNHaiwhzY7LtQelE1GUGKQ4nGeojU2FDURwgAlfJTiNk4NGOF1M3+ihewFSvXNbRcrlKoC68xzcHNs1VY4jDyJCyjtQR748vUEnMAj6WzHhsdy+TBH8gLt9ABJV74+SuJjIohmapT1pKk5UQ6EIZxlfTdTo6YyquJRYH/WWfcCtUL5/2DTpV0P8KnJKIZY3ocLFdxfqLEeNob1jLC+U9SsJElPSrtY9gXWM8XPzIJ7i8wfSLoaKOfxn5Sorz+qYG61hoCSp6RgiI06R7s8zOhinQOhxeDdpAdKKe5DiNIxRCk5Qzt6hY7y6lDEEC+pVF03aPf/ndHMzHIVQYbKyrptDliU99oksLxZQ2XdM6Sn2cE7C1Xcmn/cpYXYjDClPk5zcJHPf3UiYnxEPyVR84V7NEl/PV/BKqOequqhSQnzGScVQnwihhL9gRZZXhymCSLBMwsl3Fh4vD8S69AABYccXEuFcZVafZnBwSQHqhWoz4dCdkxmQQYxPO7APhdDQI9/bSyCawzlhnc82tEIsh4yDO3ushP/fbeAv58pYY5SbVNTtA9Ftt6A1+EYB5chY/p0FC+fiuFrvL6qz/jdcQgUNmZpDheKuHmvgP++ncVshgSzHg2w/EUTIZIVGrIQG3MwNRXHF/j3eQ5wiWan6bQPBe8JNjn/WCrhQ9bzzkweD1ap5S3iWNbCbIhGVCtBWpjQ9RRH9SKlV96/JbAPPgWzVKATpJlYoAnZpK+Qk6Ov/HhvC4kJEpQWDTT/G6dUX6NOT43GjV9oBbQ+8EshuDyml3xkSvXPtV1D5kWwqJk2HaoO9ctmfYrPtQAlKCajS8WW8QiHQH1i3K96cvQL2WJ1x0Icx8qxrIlorc7orJ7rWt5aplvhWstQI/mMHDD5NmdtMtIP4dDkc0JCZ0SbbMKQBnRlfu6p1JwN0NnS+VVp1g6FmsSydQQh7QjgbJUlaSeBMCDBUX8aR9MDKhzUlXJFmvnaLChuCjoCjXqUXdWvMKlqKclxrBxL+kGoss+KMtifJwNrMzmVBjRmaqA59B3N2W5IE3Ts/oUisxTYYqsjjF8VI6n85mYiDddRskL+DJdqpl6kf1J83NLDcWDzVZVpnPnrYBghabHzTRi7vOsZs9bJQ8Q2NP8x6GegEqlY4y/+TSnU6+5PA1XRXDw/DAU2Rvtlngbqn2PRDDf+PgyHki5be1TVcrBPOjtTUlHOromo4luWoYmGJi+toFKmeZGqPQVUhaKTo5ota6MZqfr+pLUoi+Q5Tn3R/Agc2FV9eJxDkFPSZOZJYEK6nVCFZZA8ZQKLLIZBR0tI9kUQl7N9CojENbb5KEEepIlTbC9HmjGzldYRohY5lbI5H4UW5as9kJQHO6EKpZvOU5GDci19LbakkK8ZZ/o0kJ0eJqGS5sOghF2OAxOh3A7sbE9tDZIbTm7N+Sg8NemaVpsY/knABu0WghpFTs5YHl/mrAlFMeZXoNk6y+XsMfvxP+egzaXOPofbKgwp9JRylodByitfoxqeVJ/EhiKx41g5tvVafAh2Ei116PcjNeVtxrVPC5k+HZKnCmeHAeNdwdh+nrVKJE2wdnls82Nnx4lSA5WAz9KAy0L7fE4+iJNSeMr7NGyMAgJOB3Zg9sfzUEuKrcqkzQDT/PwV/QWvdT4KR5aq3IrLoNpnI7X81jy07zzDsxJhLcGhs6SnTNNRjPDQpEfrnQoF5dSUQnEUTxfYVU4AfJqQKidQWyVOopShtKTsdSgeFoEHgr3RDx2lWP4Q61E+RjkRi5Ir3yHFNPM5XkuQ6v3Rbzz6yFLEFbk4vFepFsX27mEyy48V+sbZpwHWo5RIX6rexhrj2eNYOZJ0OUqNuK8GUgqDbA3edg3vrlbxHR6aWR4INYolm8hOGsGp/NiEg6tnHLzB40unIzjXV59ya/8gLzGg9DDNiqV95Jz85FnP7bUqvr1Sxc2N2k5H4jEL0f3mRdywDIthUN+ghfOTDj571sbPXIrjdJITMAkPydRgTcpRanWJAuOzP9nNqlnpUi5+Wct9GvCqC8YgSO6LXyTA6pMmVZEkcIp9eon9eY31aTVM4a9+t1fno3DgVmn1QRnbdUrBLFnfIvkiI8XG1Gh8M/x8iaqb4ecyBWESJvhbklQGTpS2SIyNjnMiRWkb0TrniINXx2N4ZSKKq32OWZpTJ9QtZRK1GqWsXTVXpY2nQeBnOarBMq9zeZbLEOf8uAOnWjFLgRucfjehfI1GLjUawRkeLw7Y+Py5BF7WlumYDY/mSWGcTKJmnGZrdZb1sFyP0u5xANbK9C/UtAg7NNanf4/JxsNcgGzuY+Lj0QDRFOvl95OU7ueGbbw6GcOnR6KYoApJQFvBoald0bjBBmn5S7PPEq+XKH3za2Xco/0qaAcFP5NnDCkKIbnuUol/0oSw089rNSjKr+OOWdAYoYQNKvdMIpUf1JbnBMlQ5FJlGRnWo/eEqqqThCzzptu1EGYpge5qBQF9qbKMskX3FtiODRe28j8k9jpDn7G4hX6q+xA7P0Rno0VyRCI0hdQSOoE461W0mqW0K9xdIuE5kqxFjJvlEGaoTSFGRcmQj5dOx0w+/cYCtZmHsqRTw47JN2kRY5B1iRMt843QsWs1S3y16GqOXsSQSsqDK9QSv2u0fXNbVEdKxTolXhWrI2wD8pImdmCQA3A6ZWGSjZvQrIefb8tJshY5Lb1ekqSLXyx4Zg21nzG3Dr38JUlMxSLwixWsscKbJPz2tssw0UOYGvC551Lwec8czc4mSTOvsnCwXxm0TRvIpYmI5PfV7rwfMsuLcssabGUZJY0698WobRyMTMnFXbblLp2HfJVVruHykIOxgahZ+ptdLMHj9TkK0tV+2+TP02yD6vDJtJy9/NKT4EjShSbparrCOkljho61TIlp+lEtg+laIbhWVOQkFTXIZi8yXJghaUWSpH/uY5yqOcWGv/+ohCVKV4ymZpidHOcgTdFen+LkZzCsNyt8szy4zoGmZUO0UqMGRU078o0Br6/ahDBI86bc/jzr0qL4lnYCUNpNsovt0tY8OdMoBSLM+ibZ4Kssa4LnEOuRUGRYScF00jP+JRW3zRrvFgfb5wClKShj/Fx7cJrzO2nskeQdgmNJPwyKODTAkhy1VUKtpTB1IMfGamCWcjXczfvGL5Romvo4EJeppnrR6+3pbazlaAcjVE852lQY51jIpCIcRgIxqm2chCY56ime+zWI9M71vekklJVu0sblWV+5XKX99XCvAvN2XZ4SumcrHtujF70gqRyKYpI2TXb/jKSWJEZYvuJrkS1NVL/UJ51Viqz6U5F0CJ6adEEjzjYaDaAwYZPT+mk60+n1GhYZFZQKlH12tBCpO7N+9uwyI4fLtMF7XvQisY5Dx2tpUYPPpBJI0qaepnPUstt5nk+RkCASNb+nWKy5mKc9fm+thntal80VGH+HkWeMXLUZAbFRak8zFje2UVswGi96hegQh9IOHSMJZ5v6Wf4YtealEUZV9D8iXjsRZKflc+TkNQjtwjO96NVsiMxGhrbzA5qLjyjZDylpeutNaf0KHakiB4siGyGBesNuhOKzuF6iVjRe9GJBnkv7W9VOABvZfMABDMyUvMiz1NhsyfA9mjs6dZJ5j7bg3YyLleUyY+wwihpYEh5n+YNDEVQowZrYGREV+TL4jRe9dC5RI7JZmiJqyCaFQ21d5n1qTpwDIOL1qEymzu1EPdZrE/Si1wJJKiqYpaRa5kWv+gpNmCToXVA5IXme+oteu0zAPgS0zdlVF7cWKvjGowr+ebVm5gVGaEmg3rBTvGydisM6HYc9HEUffcMFmq/XKbnPM7KgIB8LrTRVtZqlddf7Rbx9v4RpCo8mhpLyk0BbSJckiATZdHJOM8BZICVboaRWnLQRiZemMnFuQhmtBh01n5f0s8wyneMWJ2ZzPGsGK5uuzUzGclD6VbCpRwPAQxGQtnVo5tkSZ2ov69IrjWU67TwPDaqa2BZyDkDbyhWZzU6aJT6qqP4WAeJHxw74R4jxs+nZcVC5JJt87iSq6iV/ctE+0g8oSdQojlWkIZO6A34R0AYbST0OJFzLeEpEaYMQZdoMwCcZbSHdWIuGSu6GjIcSScYU7IbIjsdYewvV69mmiP+EoC2kUxjNjtyWf0mCJIa26b0Y/h0H884Rw72fJLSFdAniSb3opXeOXM5UN+lUE/QT2l2752dFPoFoC+nGWtDQtmKiDagRQSrOcwvVs0xFLZqZ1m26cjitVvTjibaQLhy0B0aFK3p5zOpIUFvdNCNTxIlXlESLbD3a4pNPBZ/hp7TrJNE+0slGU+k1/Q6UASMUvTzWBXrc0HFxulrGQ0Rr0XqCsb5eS9EAsvT6i161+rtMOxUTKlEZwCcCy9RKUEBttTmjsljPSeKZSVd/dYgQ/VKFUgIhxoieFgg40dimE3Q5ABoIrRLt/GNOJsY8pHMqJ8HZayqM8bSNq2NRvMqzytf6paboyvuoHpcTJ79CSy+fwgmOMoMrZQ8l1nms6Wf1WjiJaCmxP2Ry85NUzYGGqTwpjXqmhFcT6pwWJfTLRjdWqrizUkFm2zXv+IRiJFz7VCii5kWvftvkq99drGD+UdXMBPdDu2kvjkfwwqCNSyRhMlVPF6S0OYlkaEZ6M+vi7zl1X9XvR2n/ujbNUkrDfCacsOBuKWvSgMkdfJzwakIrXIlBC6cnY7gaDZn3jrQpVplH7Wk/KbSFdEHEb1GvZ0nGDMnXb3ghX0MmZGOFna4pT83OXBqpv+j11u0cNrdplsLKc9P2k7AUveUg45P+oSiGU7Yh4QxJ16s1ZoVJ9fAQ6csl32Q07xU8WNtl5DjAWoQocPBLnHhp18AOWL9Su9Itk8nsi2LA8uHEWXaS0p0I4+Vhx4S9Sj9LA5SyPim0jXRBK00ltlZvT5fY+c2ii1tZD+8XlNFzkabOXpb09lt4Z3oTy2Ubrt5uUwo3GcaVfgenY8rVKGcTNgsUJipi2ZL1Zl5bfJqXyWhC8jRXoZqHedbxIO+Z11ke5fcZBj3AQ6tTF4Y0kI5JLyvjaTk2khykVMg1O3epk/U6zIMng7aS3oQIUqFZEj9Lqb9LqSzy0CaFUcbc47TX95eLyMqXphwMUqrPUOrOUuK0ZUL2WgQ/ScdXaD5W6UNWWY9e1zkI+jfrzg44Zv30NE2QFkfMXhXLeuzfSzpJnAjpTahg7YA1vxvQyBHUNxBR45Ue4KFkll4LN2ukz2BHNWGSQMusKN9+ELQxNB7VPxrr1d8GfPrqngknSnoTWkOtu8K6rZTvlI329C/kkgCtBslePyukIVp2OwxaTHFZZyt7U04SHSG9h7145ji9hydHj/QuoEd6F9AjvQvokd4F9EjvAnqkdwE90ruAHuldQI/0LqBHescB/A+dEChEwaUTowAAAABJRU5ErkJggg==;fontSize=10;" vertex="1" parent="1">
          <mxGeometry x="387.18000000000006" y="879.82" width="55.64" height="70" as="geometry" />
        </mxCell>
      </root>
    </mxGraphModel>
  </diagram>
</mxfile>
